<svg viewBox="0 0 26 24" xmlns="http://www.w3.org/2000/svg"><path fill="#273d70" d="M7.2,10.4c0,1.4,0.1,2.6,2,2.6c1.9-0.1,2.3-1.3,1.8-2.8c-0.6-1.9,0.3-2.3,1.9-2.2c1.3,0.1,3-0.3,2.3,1.9c-0.2,2.4,0.2,2.9,1.8,3c2.1,0.1,2-1.3,2-2.7c0-2.5,0-5,0.4-7.4c0.2-1.3,0.3-2.6-1.6-2.8c-1.9-0.1-2.4,1-2.2,2.6c0.2,1.9-0.3,2.5-2.4,2.6c-2.7,0.1-2.5-1.3-2.4-3c0.1-1.5-0.7-2.2-2.2-2.1C7.1,0.2,6.6,1,6.8,2.4C7.2,5,7.1,7.7,7.2,10.4z"/><path fill="#273d70" d="M24,7c-2,0-2.1,1.2-2.1,2.7c0.1,1.9-0.2,3.8-0.9,5.5c-1.3,3.4-3.9,4.9-8.2,4.9c-4.2,0-6.7-1.6-7.9-5c-0.7-2-1-4.1-1-6.2C4,7.6,3.5,7,2.1,7C0.8,7.1,0,7.5,0,9c0,2.1,0.3,4.2,0.9,6.2c1.3,4.4,4.1,7.4,8.5,8.3C19,25.7,25.8,20.1,26,10.2c0-0.2,0-0.3,0-0.5C26,8.4,26.2,7.1,24,7z"/></svg>