<svg viewBox="0 0 78 24" xmlns="http://www.w3.org/2000/svg"><style>path{fill:#fff}</style><path d="M41.7,12.2c-0.2-2.7-2.3-3.9-4.8-3.1c-0.5,0.2-1.1,0.5-1.9,0.8c0-1.5,0-2.6,0-3.7c0-1.6-1.1-1.3-2-1.3c-1,0-1.8,0.1-1.8,1.4c0,4,0,8,0,11.9c0,1.6,1.1,1.3,2,1.3c1,0,1.8,0,1.8-1.3c-0.1-1.5,0.1-3,0-4.5c-0.1-1.2,0.7-1.6,1.6-1.7c1.2-0.1,1.3,0.8,1.3,1.7c0,1.5,0.1,3,0,4.5c0,1.6,1.1,1.3,2,1.4c0.9,0,1.8,0.1,1.8-1.3C41.7,16.3,41.8,14.2,41.7,12.2z"/><path d="M7.3,10.4c0,1.4,0.1,2.6,2,2.6c1.9-0.1,2.3-1.3,1.8-2.8C10.5,8.3,11.4,7.9,13,8c1.3,0.1,3-0.3,2.3,1.9c-0.2,2.4,0.2,2.9,1.8,3c2.1,0.1,2-1.3,2-2.7c0-2.5,0-5,0.4-7.4c0.2-1.3,0.3-2.6-1.6-2.8c-1.9-0.1-2.4,1-2.2,2.6c0.2,1.9-0.3,2.5-2.4,2.6c-2.7,0.1-2.5-1.3-2.4-3c0.1-1.5-0.7-2.2-2.2-2.1c-1.5,0.1-2,0.9-1.8,2.3C7.3,5,7.2,7.7,7.3,10.4z"/><path d="M53,9.1c-1.6,0-2,0.6-1.9,2c0.1,1.3,0,2.7,0,4.1c0,1.1-0.6,1.5-1.5,1.5c-1,0-1.3-0.6-1.4-1.5c-0.1-1.5-0.1-3,0-4.5c0.1-1.4-0.6-1.6-1.8-1.6c-1.1,0-1.9,0.1-1.9,1.5c0.1,1.9,0,3.8,0.1,5.6c0.2,3,2.2,4.3,5,3.2c0.7-0.3,1.1-0.4,2-0.1c2.4,0.9,3.3,0.1,3.3-2.6c0-0.8,0-1.7,0-2.5c0-1.1-0.1-2.3,0-3.4C55.1,9.5,54.4,9.1,53,9.1z"/><path d="M24.3,7c-2,0-2.1,1.2-2.1,2.7c0.1,1.9-0.2,3.8-0.9,5.5c-1.3,3.4-3.9,4.9-8.3,4.9c-4.2,0-6.8-1.6-8-5c-0.7-2-1-4.1-1-6.2c0-1.3-0.5-1.9-1.9-1.9C0.8,7.1,0,7.5,0,9c0,2.1,0.3,4.2,0.9,6.2c1.3,4.4,4.1,7.4,8.6,8.3c9.7,2.1,16.6-3.4,16.8-13.3c0-0.2,0-0.3,0-0.5C26.3,8.4,26.5,7.1,24.3,7z"/><path d="M62.9,9.2c-0.9,0.4-1.6,0.2-2.5-0.1c-2.2-0.5-2.6-0.1-2.6,2.2c0,1,0,2,0,2.9c0,1.3,0,2.6,0,3.8c-0.1,1.5,0.9,1.4,1.9,1.5c1.1,0,1.7-0.4,1.6-1.6c-0.1-0.6,0-1.2,0-1.8c-0.1-1.9-0.1-3.6,2.5-3.9c1.4-0.2,0.7-1.6,0.7-2.5C64.4,8.9,63.5,9,62.9,9.2z"/><path d="M76.6,10.3C75,8.5,73,8.4,70.7,9.8c0-1.2-0.1-2.2,0-3.2c0.1-1.5-0.7-1.7-1.9-1.7c-1.3,0-2,0.3-1.9,1.7c0.1,3.2,0,6.5,0,9.7c0,3.3,0,3.2,3.1,3.2c0.5,0,1,0.1,1.6,0.2c2.4,0.4,4.3-0.4,5.6-2.5C78.5,15.2,78.2,12,76.6,10.3z M72,17c-1.9,0-1.1-1.5-1.3-2.4c0.2-1.1-0.5-2.7,1.4-2.7c1.8-0.1,2,1.3,2,2.6C74.2,15.9,73.7,17,72,17z"/></svg>