<svg viewBox="0 0 16 16" xmlns="http://www.w3.org/2000/svg"><path d="M4.4,7c0,0.9,0.1,1.6,1.2,1.6c1.2-0.1,1.4-0.8,1.1-1.8C6.4,5.7,6.9,5.5,7.9,5.5c0.8,0.1,1.8-0.2,1.4,1.2c-0.1,1.5,0.1,1.8,1.1,1.9c1.3,0.1,1.2-0.8,1.2-1.7c0-1.6,0-3.1,0.2-4.6c0.1-0.8,0.2-1.6-1-1.8C9.7,0.4,9.4,1.1,9.5,2.1c0.1,1.2-0.2,1.6-1.5,1.6C6.4,3.8,6.6,2.9,6.6,1.9c0.1-0.9-0.4-1.4-1.3-1.3S4.1,1.1,4.2,2C4.4,3.6,4.4,5.3,4.4,7z"/><path d="M14.8,4.9c-1.2,0-1.3,0.8-1.3,1.7C13.6,7.8,13.4,9,13,10c-0.8,2.1-2.4,3.1-5,3.1c-2.6,0-4.1-1-4.9-3.1C2.6,8.7,2.4,7.4,2.4,6.1c0-0.8-0.3-1.2-1.2-1.2C0.5,5,0,5.2,0,6.1C0,7.5,0.2,8.8,0.5,10c0.8,2.8,2.5,4.6,5.2,5.2c5.9,1.3,10.1-2.1,10.2-8.3c0-0.1,0-0.2,0-0.3C16,5.8,16.1,5,14.8,4.9z"/></svg>