<svg xmlns="http://www.w3.org/2000/svg"><symbol id="airplane" viewBox="0 0 24 18"><title>Airplane</title><path d="M8.8,6L6.2,0h3.7l6.2,6c1.4,0,2.9,0,4.3,0C22,6.1,24,7.5,24,9c0,1.6-2,3-3.7,3h-4.2l-6.2,6H6.2l2.6-6H5.3l-2.2,2H0l1.7-5L0,4h3.1l2.1,2H8.8z M11.8,8L4.6,8l-2-2l1.3,3l-1.3,3l2-2h7.2l-2.5,5.7l5.9-5.7c1.6,0,3.5,0.1,5.1,0C21.2,9.9,22,9.2,22,9c0-0.2-0.9-1-1.7-1h-5L9.3,2.3"/></symbol><symbol id="arrow-small-left" viewBox="0 0 15 24"><title>Arrow - Left</title><path d="M15,21l-3.1,3L0,12L11.9,0L15,3l-9,9L15,21z"/></symbol><symbol id="arrow-small-right" viewBox="0 0 15 24"><title>Arrow - Right</title><path d="M0,3l3.1-3L15,12L3.1,24L0,21l9-9L0,3z"/></symbol><symbol id="arrow-right" viewBox="0 0 30 10"><title>Arrow - Right</title><path d="M27.8,4.5l-4.6-3.8L23.9,0L30,5l-6.1,5l-0.7-0.8l4.6-3.7L0,5.5l0-1L27.8,4.5z"/></symbol><symbol id="car" viewBox="0 0 24 14"><title>Car</title><path d="M24,8.2c0-2.8-2-3.4-2.8-3.6c-1.1-0.3-1.7-0.5-3-0.8c-0.5-0.5-2.1-2-2.4-2.4l-0.1-0.1C15,0.6,14.3,0,12.5,0H4.9C4.3,0,4.1,0.5,4.6,0.9C4.1,1.4,2.7,2.7,2.3,3.1C0.9,4.5,0,5.5,0,7.7c0,2.5,1.4,4.3,3.2,4.3c0.4,1.2,1.5,2,2.8,2c1.3,0,2.4-0.8,2.8-2h6.4c0.4,1.2,1.5,2,2.8,2c1.3,0,2.4-0.8,2.8-2C22.8,11.9,24,10.5,24,8.2z M6,12.2c-0.7,0-1.2-0.5-1.2-1.2S5.3,9.8,6,9.8s1.2,0.5,1.2,1.2S6.7,12.2,6,12.2z M18,12.2c-0.7,0-1.2-0.5-1.2-1.2s0.5-1.2,1.2-1.2s1.2,0.5,1.2,1.2S18.7,12.2,18,12.2z M20.8,10.1C20.4,8.9,19.3,8,18,8c-1.3,0-2.4,0.9-2.8,2.1H8.8C8.4,8.9,7.3,8,6,8c-1.3,0-2.4,0.9-2.8,2C2.6,9.9,2,9,2,7.7c0-1.3,0.5-1.9,1.7-3.2C4.4,3.7,5,3.2,6,2.4C6.3,2.1,6.8,2,7.2,2h5.2c1.2,0,1.6,0.4,2.1,0.9c0.4,0.4,2.7,2.7,2.7,2.7s2.3,0.6,3.5,0.9C21.5,6.7,22,6.9,22,8.2C22,9.4,21.6,10,20.8,10.1z"/></symbol><symbol id="check" viewBox="0 0 18 14"><title>Check</title><path d="M18,1.3L6.8,14L0,8l1.3-1.5l5.3,4.7L16.5,0C16.5,0,18,1.3,18,1.3z"/></symbol><symbol id="cross" viewBox="0 0 10 10"><title>Cross</title><path d="M10,8.5L6.4,5L10,1.4L8.5,0L5,3.6L1.4,0L0,1.5L3.6,5L0,8.6L1.5,10L5,6.4L8.6,10L10,8.5z"/></symbol><symbol id="hand-money" viewBox="0 0 48 48"><title>Money</title><path d="M24,0C10.8,0,0,10.8,0,24s10.8,24,24,24s24-10.8,24-24S37.2,0,24,0z M24,45C12.4,45,3,35.6,3,24S12.4,3,24,3s21,9.4,21,21S35.6,45,24,45z M24,22.5c-2.4,0-4.5-1.4-4.5-3s2.1-3,4.5-3c1.4,0,2.7,0.4,3.5,1.2c0.6,0.5,1.6,0.5,2.1-0.1c0.6-0.6,0.5-1.6-0.1-2.1c-1.1-0.9-2.5-1.6-4-1.8V12c0-0.8-0.7-1.5-1.5-1.5c-0.8,0-1.5,0.7-1.5,1.5v1.6c-3.4,0.6-6,3-6,5.9c0,3.3,3.4,6,7.5,6c2.4,0,4.5,1.4,4.5,3s-2.1,3-4.5,3c-1.4,0-2.7-0.4-3.5-1.2c-0.6-0.6-1.6-0.5-2.1,0.1c-0.6,0.6-0.5,1.6,0.1,2.1c1,0.9,2.5,1.6,4,1.8V36c0,0.8,0.7,1.5,1.5,1.5c0.8,0,1.5-0.7,1.5-1.5v-1.6c3.4-0.6,6-3,6-5.9C31.5,25.2,28.1,22.5,24,22.5z"/></symbol><symbol id="magnifier" viewBox="0 0 48 48"><title>Magnifier</title><path d="M47.4,44.7l-10-10c3-3.7,4.9-8.4,4.9-13.5C42.3,9.5,32.8,0,21.1,0C9.5,0,0,9.5,0,21.1c0,11.7,9.5,21.1,21.1,21.1c5.1,0,9.8-1.8,13.5-4.9l10,10c0.4,0.4,0.9,0.6,1.4,0.6c0.5,0,1-0.2,1.4-0.6C48.2,46.7,48.2,45.4,47.4,44.7z M3.9,21.1c0-9.5,7.7-17.2,17.2-17.2s17.2,7.7,17.2,17.2s-7.7,17.2-17.2,17.2S3.9,30.6,3.9,21.1z"/></symbol><symbol id="tag" viewBox="0 0 24 24"><title>Tag</title><path d="M9.8,2l11.4,11.4l-7.8,7.8L2,9.8V2C2,2,9.8,2,9.8,2z M10.6,0H0v10.6L13.4,24L24,13.4L10.6,0z M7.4,7.4c-0.8,0.8-2,0.8-2.8,0c-0.8-0.8-0.8-2,0-2.8c0.8-0.8,2-0.8,2.8,0C8.2,5.4,8.2,6.6,7.4,7.4z"/></symbol><symbol id="telephone" viewBox="0 0 16 22"><title>Telephone</title><path d="M2.5,1.2L5.2,0L9,7.2L6.4,8.5c-0.5,1.2,2.1,5.8,3.1,5.8c0.1-0.1,2.5-1.2,2.5-1.2l3.9,7.3c0,0-2.6,1.2-2.7,1.3C5.8,24.9-4.9,4.9,2.5,1.2z M4.3,2.4l-1,0.5c-5,2.5,4,19.4,9.2,17.1l0.9-0.4l-2.2-4l-1,0.5c-3,1.4-7.9-7.5-4.8-9.1l1-0.5C6.4,6.4,4.3,2.4,4.3,2.4z"/></symbol><symbol id="sun" viewBox="0 0 48 48"><title>Sun</title><path d="M32.5,15.5c-2.2-2.2-5.2-3.6-8.5-3.6s-6.3,1.3-8.5,3.6c-2.2,2.2-3.6,5.2-3.6,8.5s1.4,6.3,3.6,8.5c2.2,2.2,5.2,3.6,8.5,3.6s6.3-1.3,8.5-3.6c2.2-2.2,3.6-5.2,3.6-8.5S34.7,17.7,32.5,15.5z M30.2,30.2c-1.6,1.6-3.8,2.5-6.2,2.5s-4.6-1-6.2-2.5s-2.5-3.8-2.5-6.2s1-4.6,2.5-6.2s3.8-2.5,6.2-2.5s4.6,1,6.2,2.5s2.5,3.8,2.5,6.2S31.8,28.6,30.2,30.2z M46.3,22.3h-4.9c-0.9,0-1.7,0.8-1.7,1.7c0,0.9,0.8,1.7,1.7,1.7h4.9c0.9,0,1.7-0.8,1.7-1.7S47.2,22.3,46.3,22.3z M24,39.8c-0.9,0-1.7,0.8-1.7,1.7v4.9c0,0.9,0.8,1.7,1.7,1.7c0.9,0,1.7-0.8,1.7-1.7v-4.9C25.7,40.6,24.9,39.8,24,39.8z M41,38.7l-3.5-3.5c-0.6-0.6-1.7-0.6-2.3,0c-0.6,0.6-0.6,1.7,0,2.3l3.5,3.5c0.6,0.6,1.7,0.6,2.3,0C41.6,40.3,41.6,39.3,41,38.7z M24,0c-0.9,0-1.7,0.8-1.7,1.7v4.9c0,0.9,0.8,1.7,1.7,1.7c0.9,0,1.7-0.8,1.7-1.7V1.7C25.7,0.8,24.9,0,24,0z M41,7c-0.6-0.6-1.7-0.6-2.3,0l-3.5,3.5c-0.6,0.6-0.6,1.7,0,2.3c0.6,0.6,1.7,0.6,2.3,0L41,9.3C41.7,8.7,41.7,7.7,41,7z M6.5,22.3H1.7C0.8,22.3,0,23.1,0,24s0.7,1.7,1.7,1.7h4.9c0.9,0,1.7-0.8,1.7-1.7S7.4,22.3,6.5,22.3z M12.8,35.2c-0.6-0.6-1.7-0.6-2.3,0L7,38.7c-0.6,0.6-0.6,1.7,0,2.3c0.6,0.6,1.7,0.6,2.3,0l3.5-3.5C13.4,36.8,13.4,35.8,12.8,35.2z M12.8,10.5L9.3,7C8.6,6.4,7.6,6.4,7,7S6.3,8.7,7,9.3l3.5,3.5c0.6,0.6,1.7,0.6,2.3,0C13.4,12.2,13.4,11.2,12.8,10.5z"/></symbol><symbol id="user" viewBox="0 0 42 48"><title>User</title><path d="M21,0C14.3,0,8.8,5.6,8.8,12.5S14.3,24.9,21,24.9s12.2-5.6,12.2-12.5S27.7,0,21,0z M41.9,34.9c-0.3-0.8-0.7-1.6-1.2-2.3c-2.4-3.7-6.2-6.1-10.5-6.7c-0.5-0.1-1.1,0.1-1.5,0.4c-2.2,1.7-4.9,2.6-7.7,2.6s-5.4-0.9-7.7-2.6c-0.4-0.3-1-0.5-1.5-0.4c-4.3,0.6-8.1,3-10.5,6.7c-0.5,0.7-0.9,1.5-1.2,2.3c-0.2,0.3-0.1,0.7,0.1,1c0.4,0.8,1,1.5,1.4,2.2c0.7,1,1.5,2,2.4,2.8c0.7,0.8,1.6,1.5,2.4,2.2C10.7,46.3,15.7,48,21,48s10.3-1.7,14.5-4.9c0.9-0.7,1.7-1.4,2.4-2.2c0.9-0.9,1.7-1.8,2.4-2.8c0.5-0.7,1-1.4,1.4-2.2C42,35.6,42.1,35.2,41.9,34.9z"/></symbol></svg>